<svg xmlns="http://www.w3.org/2000/svg" xmlns:xlink="http://www.w3.org/1999/xlink" width="4000" zoomAndPan="magnify" viewBox="0 0 3000 1265.999941" height="1688" preserveAspectRatio="xMidYMid meet" version="1.0"><path fill="#b12931" d="M 1530.929688 336.882812 C 1530.484375 339.363281 1530.222656 341.480469 1530.347656 341.59375 C 1530.46875 341.707031 1537.261719 342.132812 1545.445312 342.539062 C 1561.8125 343.355469 1564.34375 343.769531 1569.558594 346.492188 C 1574.683594 349.167969 1577.78125 352.726562 1587.621094 367.222656 C 1592.449219 374.339844 1596.570312 380.40625 1596.777344 380.710938 C 1596.984375 381.011719 1598.183594 380.652344 1599.445312 379.910156 C 1600.707031 379.164062 1603.035156 378.367188 1604.621094 378.132812 L 1607.503906 377.707031 L 1596.722656 361.882812 C 1585.011719 344.6875 1581.679688 340.976562 1574.683594 337.304688 C 1568.015625 333.8125 1564.628906 333.253906 1547.292969 332.792969 L 1531.734375 332.378906 L 1530.929688 336.882812 M 1527.238281 352.503906 C 1526.101562 356.570312 1524.207031 361.890625 1523.03125 364.332031 C 1520.953125 368.632812 1520.921875 368.828125 1521.890625 370.863281 L 1522.890625 372.957031 L 1532.425781 372.96875 C 1552.765625 372.992188 1560.921875 374.539062 1569.238281 379.957031 C 1574.671875 383.5 1577.441406 386.699219 1585.890625 399.191406 C 1589.792969 404.957031 1593.113281 409.671875 1593.273438 409.671875 C 1593.433594 409.671875 1592.382812 407.324219 1590.941406 404.449219 C 1589.496094 401.578125 1587.386719 397.195312 1586.253906 394.707031 L 1584.191406 390.1875 L 1589.445312 386.582031 L 1594.703125 382.972656 L 1589.238281 374.960938 C 1575.195312 354.359375 1574.289062 353.175781 1570.75 350.730469 C 1568.84375 349.414062 1565.574219 347.894531 1563.484375 347.359375 C 1560.277344 346.53125 1540.050781 345.101562 1531.640625 345.109375 L 1529.304688 345.109375 L 1527.238281 352.503906 M 1524.609375 376.816406 C 1524.640625 377.304688 1525.421875 379.984375 1526.351562 382.769531 L 1528.035156 387.835938 L 1538.796875 388.304688 C 1551.246094 388.851562 1555.113281 389.457031 1559.765625 391.585938 C 1565.839844 394.367188 1568.53125 397.691406 1588.621094 427.230469 C 1606.722656 453.851562 1608.078125 455.664062 1612.859375 459.667969 C 1619.542969 465.269531 1626.945312 473.199219 1630.558594 478.628906 C 1634.359375 484.351562 1636.671875 489.558594 1638.859375 497.34375 C 1640.128906 501.855469 1641.417969 504.8125 1643.34375 507.636719 C 1646.046875 511.601562 1647.992188 516.6875 1647.992188 519.796875 C 1647.992188 520.703125 1647.515625 523.144531 1646.933594 525.21875 C 1646.335938 527.363281 1645.9375 530.773438 1646.015625 533.109375 C 1646.148438 537.140625 1647.671875 542.601562 1648.664062 542.601562 C 1649.632812 542.601562 1653.132812 537.8125 1654.910156 534.058594 C 1658.515625 526.4375 1658.980469 522.234375 1658.484375 501.773438 C 1657.976562 480.976562 1657.300781 467.511719 1656.726562 466.941406 C 1656.515625 466.726562 1654.277344 467.921875 1651.757812 469.597656 L 1647.175781 472.644531 L 1647.617188 484.046875 C 1647.882812 490.957031 1647.828125 495.195312 1647.476562 494.8125 C 1647.15625 494.464844 1631.035156 470.820312 1611.648438 442.273438 C 1573.027344 385.402344 1572.261719 384.414062 1563.683594 380.34375 C 1557.273438 377.300781 1554.621094 376.878906 1538.589844 376.371094 C 1526.738281 375.996094 1524.5625 376.066406 1524.609375 376.816406 M 1530.496094 399.386719 C 1530.675781 399.996094 1531.429688 402.914062 1532.171875 405.875 C 1533.941406 412.933594 1537.5 423.917969 1539.445312 428.320312 L 1540.996094 431.828125 L 1545.351562 431.828125 C 1554.90625 431.828125 1568.800781 435.300781 1581.875 440.957031 L 1589.769531 444.375 L 1585.757812 438.578125 C 1583.550781 435.386719 1577.21875 426.121094 1571.6875 417.988281 C 1566.15625 409.851562 1560.707031 402.496094 1559.578125 401.632812 C 1556 398.90625 1552.507812 398.277344 1540.871094 398.277344 C 1530.972656 398.277344 1530.191406 398.363281 1530.496094 399.386719 M 1276.335938 512.703125 C 1274.324219 520.976562 1274.316406 529.953125 1276.324219 535.085938 C 1277.089844 537.042969 1280.5625 542.738281 1284.042969 547.746094 C 1287.523438 552.75 1293.136719 560.976562 1296.515625 566.023438 C 1324.085938 607.203125 1381.582031 691.003906 1383.941406 693.445312 C 1387.347656 696.96875 1393.828125 700.429688 1399.054688 701.515625 C 1404.164062 702.578125 1412.574219 701.964844 1417.261719 700.1875 C 1419.417969 699.371094 1427.214844 694.589844 1435.300781 689.125 L 1449.546875 679.503906 L 1450.042969 675.984375 C 1450.316406 674.050781 1450.316406 671.15625 1450.042969 669.554688 L 1449.546875 666.644531 L 1432.859375 678.027344 C 1423.683594 684.285156 1414.851562 689.917969 1413.234375 690.539062 C 1411.316406 691.28125 1408.65625 691.664062 1405.550781 691.648438 C 1399.796875 691.617188 1394.832031 689.601562 1391.324219 685.871094 C 1389.476562 683.914062 1339.394531 610.785156 1294.449219 544.425781 C 1284.609375 529.898438 1283.941406 528.109375 1285.605469 520.738281 C 1286.152344 518.316406 1286.660156 516.019531 1286.730469 515.632812 C 1286.804688 515.25 1284.832031 513.046875 1282.351562 510.738281 L 1277.835938 506.542969 L 1276.335938 512.703125 M 1482.324219 509.394531 C 1467.898438 516.132812 1452.957031 518.722656 1442.371094 516.3125 L 1438.113281 515.34375 L 1431.378906 518.167969 C 1416.289062 524.488281 1404.035156 527.417969 1392.792969 527.394531 C 1388.84375 527.386719 1384.480469 527.117188 1383.097656 526.796875 C 1381.714844 526.476562 1380.515625 526.28125 1380.433594 526.363281 C 1380.355469 526.445312 1381.734375 528.703125 1383.507812 531.386719 C 1386.183594 535.4375 1386.59375 536.421875 1385.933594 537.214844 C 1385.496094 537.742188 1384.769531 538.171875 1384.316406 538.171875 C 1383.863281 538.171875 1381.289062 534.96875 1378.601562 531.050781 C 1375.910156 527.132812 1373.636719 523.839844 1373.550781 523.726562 C 1373.460938 523.613281 1372.214844 524.125 1370.777344 524.855469 L 1368.167969 526.191406 L 1375.105469 536.355469 C 1378.921875 541.945312 1381.902344 546.894531 1381.722656 547.359375 C 1381.359375 548.308594 1379.726562 549.085938 1379.015625 548.648438 C 1378.757812 548.488281 1375.453125 543.789062 1371.667969 538.199219 C 1367.882812 532.613281 1364.628906 528.058594 1364.4375 528.074219 C 1363.265625 528.175781 1359.714844 530.367188 1359.867188 530.890625 C 1359.96875 531.242188 1363.898438 537.171875 1368.597656 544.074219 C 1373.296875 550.972656 1377.050781 557.097656 1376.9375 557.683594 C 1376.828125 558.265625 1376.140625 558.828125 1375.410156 558.933594 C 1374.320312 559.089844 1372.527344 556.828125 1365.371094 546.273438 C 1360.578125 539.207031 1356.324219 533.0625 1355.910156 532.621094 C 1355.308594 531.976562 1354.679688 531.988281 1352.664062 532.6875 C 1351.289062 533.160156 1350.222656 533.808594 1350.292969 534.121094 C 1350.363281 534.433594 1355.449219 542.089844 1361.59375 551.132812 C 1372.890625 567.761719 1373.542969 569.113281 1370.570312 569.699219 C 1369.910156 569.828125 1365.765625 564.253906 1357.726562 552.425781 L 1345.859375 534.957031 L 1342.949219 535.378906 C 1341.347656 535.613281 1339.941406 535.886719 1339.820312 535.988281 C 1339.703125 536.089844 1345.96875 545.511719 1353.746094 556.925781 C 1361.523438 568.339844 1367.972656 577.871094 1368.074219 578.105469 C 1368.304688 578.640625 1366.414062 580.582031 1365.667969 580.582031 C 1365.367188 580.582031 1358.519531 570.875 1350.449219 559.011719 C 1342.378906 547.148438 1335.417969 537.304688 1334.976562 537.136719 C 1334.539062 536.96875 1332.90625 536.917969 1331.351562 537.027344 L 1328.523438 537.222656 L 1345.820312 562.542969 C 1356.429688 578.070312 1363.0625 588.351562 1362.972656 589.128906 C 1362.886719 589.855469 1362.273438 590.472656 1361.535156 590.578125 C 1360.480469 590.730469 1356.898438 585.839844 1341.675781 563.46875 C 1331.460938 548.457031 1322.640625 536.011719 1322.074219 535.820312 C 1316.296875 533.84375 1310.40625 531.078125 1304.71875 527.667969 C 1300.960938 525.414062 1297.617188 523.738281 1297.28125 523.945312 C 1296.355469 524.515625 1296.558594 531.046875 1297.5625 532.980469 C 1299.636719 536.984375 1358 622.042969 1358.671875 622.042969 C 1359.753906 622.042969 1507.429688 521.492188 1507.261719 520.871094 C 1507.179688 520.582031 1505.210938 519.339844 1502.882812 518.113281 L 1498.65625 515.882812 L 1440.289062 555.613281 L 1381.921875 595.347656 L 1380.457031 593.511719 C 1379.3125 592.074219 1379.164062 591.515625 1379.769531 590.941406 C 1380.199219 590.535156 1403.476562 574.613281 1431.503906 555.554688 C 1459.53125 536.496094 1485.09375 519.082031 1488.308594 516.851562 L 1494.15625 512.800781 L 1490.691406 509.976562 C 1488.785156 508.425781 1487.152344 507.179688 1487.058594 507.207031 C 1486.96875 507.234375 1484.835938 508.21875 1482.324219 509.394531 M 1448.59375 567.339844 C 1413.257812 591.414062 1379.144531 614.65625 1372.78125 618.988281 L 1361.21875 626.863281 L 1368.035156 636.9375 C 1371.785156 642.476562 1375.082031 647.015625 1375.367188 647.027344 C 1375.800781 647.042969 1529.601562 542.664062 1531.054688 541.367188 C 1531.324219 541.128906 1531.039062 538.742188 1530.421875 536.0625 L 1529.304688 531.195312 L 1464.226562 575.511719 C 1428.433594 599.886719 1398.941406 619.828125 1398.6875 619.828125 C 1398.433594 619.828125 1397.703125 618.941406 1397.0625 617.859375 C 1396.101562 616.226562 1396.050781 615.792969 1396.769531 615.351562 C 1400.273438 613.199219 1525.769531 527.660156 1525.789062 527.410156 C 1525.808594 527.121094 1517.148438 524.46875 1514.109375 523.832031 C 1513.226562 523.644531 1493.472656 536.765625 1448.59375 567.339844 M 1456.191406 598.355469 C 1414.238281 626.921875 1379.539062 650.660156 1379.078125 651.113281 C 1377.8125 652.351562 1394.84375 677.152344 1398.34375 679.164062 C 1401.386719 680.910156 1407.15625 681.105469 1410.171875 679.558594 C 1411.285156 678.984375 1421.246094 672.363281 1432.304688 664.839844 C 1451.65625 651.679688 1452.4375 651.066406 1453.0625 648.628906 C 1456.410156 635.566406 1463.199219 620.734375 1470.589844 610.332031 C 1475.980469 602.753906 1487.109375 591.578125 1494.347656 586.484375 C 1508.238281 576.703125 1521.8125 571.632812 1539.871094 569.476562 L 1542.839844 569.121094 L 1539.832031 562.96875 C 1538.179688 559.589844 1535.992188 554.476562 1534.972656 551.609375 C 1533.957031 548.746094 1532.976562 546.40625 1532.796875 546.410156 C 1532.617188 546.417969 1498.144531 569.792969 1456.191406 598.355469 " fill-opacity="1" fill-rule="evenodd"/><path fill="#010100" d="M 605.441406 581.652344 C 605.441406 581.890625 616.734375 613.9375 630.539062 652.863281 L 655.640625 723.640625 L 698.859375 723.640625 L 723.792969 653.21875 C 737.507812 614.488281 748.847656 582.441406 748.996094 582.007812 C 749.207031 581.386719 745.332031 581.214844 730.984375 581.214844 L 712.699219 581.214844 L 695.105469 634.46875 C 685.429688 663.757812 677.289062 687.472656 677.015625 687.167969 C 676.589844 686.6875 651.753906 611.5 644.578125 588.96875 L 642.109375 581.214844 L 623.773438 581.214844 C 613.691406 581.214844 605.441406 581.410156 605.441406 581.652344 M 784.261719 640.824219 C 772.425781 673.605469 760.851562 705.648438 758.546875 712.035156 L 754.351562 723.640625 L 790.769531 723.640625 L 791.152344 722.117188 C 791.363281 721.28125 793.277344 715.582031 795.40625 709.457031 L 799.28125 698.320312 L 852.167969 698.320312 L 856.039062 709.457031 C 858.167969 715.582031 860.082031 721.28125 860.292969 722.117188 L 860.675781 723.640625 L 897.339844 723.640625 L 896.894531 722.214844 C 896.652344 721.433594 885.121094 689.457031 871.269531 651.160156 L 846.085938 581.53125 L 825.933594 581.378906 L 805.785156 581.222656 L 784.261719 640.824219 M 913.078125 652.429688 L 913.078125 723.640625 L 947.890625 723.640625 L 947.890625 672.367188 L 961.34375 672.363281 C 976.699219 672.359375 984.238281 671.464844 991.992188 668.71875 C 999.132812 666.191406 1003.730469 663.320312 1009.027344 658.082031 C 1017.601562 649.605469 1021.847656 637.753906 1021.132812 624.289062 C 1020.460938 611.617188 1017.054688 603.484375 1009.0625 595.480469 C 1003.566406 589.976562 998.558594 586.917969 990.9375 584.410156 C 982.40625 581.605469 976.796875 581.222656 943.9375 581.21875 L 913.078125 581.214844 L 913.078125 652.429688 M 1039.675781 652.429688 L 1039.675781 723.640625 L 1126.398438 723.640625 L 1126.398438 695.789062 L 1073.859375 695.789062 L 1073.859375 664.773438 L 1120.703125 664.773438 L 1120.703125 637.550781 L 1073.859375 637.550781 L 1073.859375 609.066406 L 1126.398438 609.066406 L 1126.398438 581.214844 L 1039.675781 581.214844 L 1039.675781 652.429688 M 1737.242188 652.429688 L 1737.242188 723.640625 L 1772.050781 723.640625 L 1772.210938 681.503906 L 1772.375 639.371094 L 1788.121094 681.515625 L 1803.867188 723.664062 L 1817.832031 723.496094 L 1831.800781 723.324219 L 1847.472656 681.316406 C 1856.089844 658.210938 1863.300781 639.148438 1863.492188 638.957031 C 1863.6875 638.765625 1863.84375 657.738281 1863.84375 681.125 L 1863.84375 723.640625 L 1898.027344 723.640625 L 1898.027344 581.199219 L 1877.710938 581.363281 L 1857.394531 581.53125 L 1837.988281 629.824219 C 1827.316406 656.386719 1818.3125 678.128906 1817.976562 678.144531 C 1817.640625 678.160156 1808.53125 656.355469 1797.730469 629.695312 L 1778.089844 581.214844 L 1737.242188 581.214844 L 1737.242188 652.429688 M 1964.632812 582.957031 C 1963.917969 584.972656 1914.457031 721.65625 1914.007812 722.859375 C 1913.769531 723.496094 1917.441406 723.625 1931.929688 723.492188 L 1950.15625 723.324219 L 1954.304688 710.824219 L 1958.453125 698.320312 L 2011.648438 698.320312 L 2015.628906 710.1875 C 2017.816406 716.71875 2019.832031 722.417969 2020.101562 722.859375 C 2020.488281 723.480469 2024.632812 723.621094 2038.683594 723.492188 L 2056.765625 723.324219 L 2005.351562 581.214844 L 1965.246094 581.214844 L 1964.632812 582.957031 M 2072.101562 652.390625 L 2072.101562 723.640625 L 2106.914062 723.640625 L 2106.914062 669.835938 L 2115.460938 669.859375 L 2145.023438 723.640625 L 2184.285156 723.640625 L 2183.367188 722.214844 C 2180.90625 718.402344 2151.558594 667.695312 2151.667969 667.449219 C 2151.738281 667.289062 2153.945312 666.222656 2156.574219 665.082031 C 2172.636719 658.101562 2181.347656 645.992188 2182.65625 628.835938 C 2184.121094 609.65625 2173.363281 592.511719 2155.558594 585.648438 C 2145.246094 581.671875 2145.3125 581.675781 2107.074219 581.394531 L 2072.101562 581.136719 L 2072.101562 652.390625 M 2196.800781 595.140625 L 2196.800781 609.066406 L 2234.148438 609.066406 L 2234.148438 723.640625 L 2268.964844 723.640625 L 2268.964844 609.066406 L 2306.945312 609.066406 L 2306.945312 581.214844 L 2196.800781 581.214844 L 2196.800781 595.140625 M 947.890625 627.042969 L 947.890625 645.148438 L 956.914062 645.128906 C 972.417969 645.09375 976.878906 644.09375 981.585938 639.582031 C 984.925781 636.386719 986.085938 632.476562 985.757812 625.570312 C 985.363281 617.3125 982.574219 613.171875 975.628906 610.535156 C 973.550781 609.746094 969.90625 609.429688 960.394531 609.21875 L 947.890625 608.933594 L 947.890625 627.042969 M 2106.914062 627.476562 L 2106.914062 645.253906 L 2121.316406 645.03125 C 2134.890625 644.820312 2135.890625 644.722656 2138.714844 643.328125 C 2144.953125 640.253906 2147.792969 634.59375 2147.292969 626.238281 C 2146.972656 620.90625 2145.5625 617.445312 2142.578125 614.679688 C 2138.285156 610.695312 2133.429688 609.730469 2117.519531 609.714844 L 2106.914062 609.699219 L 2106.914062 627.476562 M 817.015625 645.632812 C 812.402344 659.476562 808.632812 671.011719 808.632812 671.269531 C 808.632812 671.523438 816.457031 671.734375 826.019531 671.734375 L 843.40625 671.734375 L 834.722656 646.097656 C 829.949219 632 825.894531 620.464844 825.71875 620.460938 C 825.539062 620.460938 821.625 631.789062 817.015625 645.632812 M 1976.511719 645.277344 C 1971.875 658.957031 1967.957031 670.507812 1967.800781 670.941406 C 1967.582031 671.5625 1971.285156 671.734375 1984.996094 671.734375 C 1994.605469 671.734375 2002.472656 671.519531 2002.472656 671.261719 C 2002.472656 670.445312 1985.832031 621.4375 1985.375 620.90625 C 1985.132812 620.625 1981.144531 631.59375 1976.511719 645.277344 " fill-opacity="1" fill-rule="evenodd"/><path fill="#e19833" d="M 1722.636719 330.78125 C 1720.351562 331.597656 1707.941406 339.480469 1702.113281 343.816406 C 1700.371094 345.109375 1697.921875 346.78125 1696.671875 347.527344 L 1694.398438 348.886719 L 1692.003906 345.414062 C 1690.691406 343.503906 1689.335938 341.941406 1688.992188 341.941406 C 1688.652344 341.941406 1685.269531 344.070312 1681.476562 346.675781 C 1675.195312 350.988281 1674.433594 351.351562 1672.859375 350.75 C 1670.414062 349.824219 1664.5 349.847656 1661.558594 350.800781 C 1660.1875 351.246094 1649.484375 358.121094 1637.769531 366.078125 L 1616.464844 380.550781 L 1613.714844 379.300781 C 1609.472656 377.375 1604.011719 377.578125 1599.789062 379.816406 C 1594.753906 382.488281 1584.34375 390.078125 1584.578125 390.910156 C 1585.117188 392.824219 1594.28125 411.390625 1597.589844 417.269531 C 1607.625 435.097656 1621.933594 454.253906 1637.945312 471.292969 L 1642.609375 476.257812 L 1645.445312 474.140625 C 1647 472.976562 1650.820312 470.3125 1653.929688 468.226562 C 1661.09375 463.410156 1663.25 460.070312 1663.402344 453.554688 L 1663.5 449.324219 L 1684.707031 434.902344 C 1698.757812 425.34375 1706.597656 419.609375 1707.949219 417.898438 C 1709.972656 415.339844 1711.921875 410.160156 1711.921875 407.359375 C 1711.921875 406.230469 1713.234375 405.03125 1717.777344 401.992188 C 1721 399.835938 1724.265625 397.585938 1725.042969 396.992188 L 1726.449219 395.90625 L 1723.859375 392.210938 L 1721.265625 388.511719 L 1722.75 387.539062 C 1723.566406 387.003906 1725.382812 385.707031 1726.785156 384.652344 C 1731.695312 380.960938 1741.679688 374.226562 1742.238281 374.226562 C 1743.425781 374.226562 1749.394531 368.238281 1750.636719 365.796875 C 1752.292969 362.550781 1752.828125 356.824219 1751.839844 352.898438 C 1750.828125 348.875 1743.527344 337.503906 1739.921875 334.328125 C 1735.386719 330.335938 1728.078125 328.835938 1722.636719 330.78125 M 1724.535156 341.117188 C 1723.636719 341.746094 1718.65625 345.085938 1713.460938 348.539062 C 1708.265625 351.996094 1703.644531 355.195312 1703.191406 355.648438 C 1702.738281 356.101562 1701.921875 356.71875 1701.382812 357.023438 C 1700.550781 357.488281 1700.527344 357.78125 1701.222656 358.890625 C 1702.039062 360.199219 1702.054688 360.199219 1703.757812 358.988281 C 1704.699219 358.316406 1705.660156 357.765625 1705.894531 357.765625 C 1706.125 357.765625 1709.867188 355.210938 1714.210938 352.089844 C 1726.304688 343.402344 1728.621094 343.304688 1733.96875 351.242188 C 1738.117188 357.40625 1737.46875 361.273438 1731.695312 364.824219 C 1729.027344 366.464844 1715.054688 376.023438 1714.246094 376.761719 C 1713.957031 377.023438 1714.074219 377.808594 1714.507812 378.503906 C 1715.265625 379.714844 1715.554688 379.597656 1721.679688 375.644531 C 1725.191406 373.378906 1730.980469 369.40625 1734.542969 366.8125 C 1740.101562 362.769531 1741.128906 361.742188 1741.78125 359.5625 C 1742.359375 357.621094 1742.367188 356.558594 1741.808594 355.082031 C 1740.628906 351.953125 1737.125 346.417969 1734.394531 343.378906 C 1732.261719 341 1731.414062 340.507812 1729.015625 340.265625 C 1726.9375 340.054688 1725.722656 340.285156 1724.535156 341.117188 M 1684.535156 357.308594 L 1682.8125 358.714844 L 1693.59375 374.542969 C 1709.554688 397.972656 1707.910156 395.917969 1709.742188 394.714844 C 1710.59375 394.160156 1711.289062 393.429688 1711.289062 393.09375 C 1711.289062 392.605469 1688.054688 357.949219 1686.660156 356.359375 C 1686.441406 356.109375 1685.484375 356.539062 1684.535156 357.308594 M 1666.101562 361.089844 C 1666.671875 362.070312 1688.898438 394.828125 1695.34375 404.191406 C 1700.335938 411.4375 1701.132812 411.800781 1701.152344 406.824219 C 1701.160156 404.558594 1699.667969 402.097656 1686.929688 383.402344 C 1678.878906 371.585938 1671.9375 362.035156 1670.949219 361.410156 C 1668.875 360.101562 1665.390625 359.871094 1666.101562 361.089844 M 1639.949219 377.261719 C 1630.828125 383.425781 1623.351562 388.671875 1623.335938 388.925781 C 1623.308594 389.28125 1656.941406 439.058594 1657.816406 439.960938 C 1658.1875 440.339844 1691.035156 417.867188 1691.035156 417.234375 C 1691.035156 416.761719 1658.453125 368.324219 1656.910156 366.5 C 1656.703125 366.257812 1649.074219 371.101562 1639.949219 377.261719 M 1641.527344 380.429688 C 1633.222656 386.050781 1627.890625 390.050781 1628.058594 390.539062 C 1628.257812 391.113281 1657.339844 434.167969 1658.402344 435.460938 C 1658.65625 435.769531 1686.601562 416.554688 1686.601562 416.078125 C 1686.601562 415.253906 1656.585938 371.464844 1655.902344 371.289062 C 1655.554688 371.199219 1649.085938 375.3125 1641.527344 380.429688 M 1601.59375 390.835938 C 1598.136719 393.027344 1597.429688 393.753906 1597.738281 394.792969 C 1598.460938 397.253906 1606.457031 411.984375 1611.382812 419.921875 C 1616.523438 428.207031 1626.226562 441.9375 1628.519531 444.171875 C 1629.230469 444.867188 1628.597656 443.726562 1627.109375 441.640625 C 1615.816406 425.792969 1600.59375 400.8125 1602.234375 400.8125 C 1602.542969 400.8125 1603.4375 402.132812 1604.222656 403.75 C 1606.582031 408.605469 1622.78125 433.09375 1623.632812 433.09375 C 1623.777344 433.09375 1621.234375 429.035156 1617.984375 424.074219 C 1612.503906 415.707031 1605.578125 403.996094 1605.578125 403.097656 C 1605.578125 402.089844 1606.8125 402.871094 1607.210938 404.132812 C 1608.058594 406.824219 1625.871094 433.726562 1626.804688 433.726562 C 1626.945312 433.726562 1624.402344 429.667969 1621.15625 424.707031 C 1614.386719 414.359375 1609.089844 405.316406 1609.535156 404.871094 C 1609.703125 404.703125 1610.992188 406.5 1612.398438 408.859375 C 1615.46875 414.011719 1626.785156 430.488281 1628.175781 431.828125 C 1628.71875 432.351562 1627.457031 430.214844 1625.375 427.082031 C 1619.355469 418.019531 1613.121094 407.621094 1613.332031 406.988281 C 1613.4375 406.667969 1614.890625 408.5625 1616.554688 411.195312 C 1620.417969 417.289062 1630.117188 431.214844 1631.371094 432.460938 C 1631.894531 432.984375 1630.339844 430.417969 1627.910156 426.761719 C 1621.257812 416.742188 1616.339844 408.632812 1616.339844 407.675781 C 1616.339844 407.207031 1617.777344 409.066406 1619.53125 411.804688 C 1623.214844 417.554688 1634.691406 433.726562 1635.089844 433.726562 C 1635.234375 433.726562 1633.117188 430.378906 1630.378906 426.289062 C 1623.617188 416.183594 1618.769531 408.296875 1619.113281 407.953125 C 1619.269531 407.796875 1620.894531 409.902344 1622.722656 412.628906 C 1627.214844 419.324219 1634.765625 429.929688 1635.042969 429.929688 C 1635.164062 429.929688 1632.289062 425.308594 1628.652344 419.660156 C 1625.015625 414.011719 1622.039062 409.113281 1622.039062 408.773438 C 1622.039062 407.878906 1622.285156 408.207031 1630.515625 419.957031 C 1634.601562 425.789062 1638.082031 430.5625 1638.25 430.5625 C 1638.417969 430.5625 1637.734375 429.351562 1636.730469 427.871094 C 1617.070312 398.910156 1610.351562 389.304688 1609.375 388.78125 C 1607.351562 387.699219 1605.960938 388.066406 1601.59375 390.835938 M 912.75 652.429688 C 912.75 691.769531 912.828125 707.769531 912.917969 687.984375 C 913.011719 668.199219 913.011719 636.011719 912.917969 616.457031 C 912.828125 596.898438 912.75 613.085938 912.75 652.429688 M 1039.351562 652.429688 C 1039.351562 691.769531 1039.425781 707.769531 1039.519531 687.984375 C 1039.613281 668.199219 1039.613281 636.011719 1039.519531 616.457031 C 1039.425781 596.898438 1039.351562 613.085938 1039.351562 652.429688 M 1736.917969 652.429688 C 1736.917969 691.769531 1736.992188 707.769531 1737.085938 687.984375 C 1737.179688 668.199219 1737.179688 636.011719 1737.085938 616.457031 C 1736.992188 596.898438 1736.917969 613.085938 1736.917969 652.429688 M 1898.332031 652.429688 C 1898.332031 691.769531 1898.40625 707.769531 1898.5 687.984375 C 1898.59375 668.199219 1898.59375 636.011719 1898.5 616.457031 C 1898.40625 596.898438 1898.332031 613.085938 1898.332031 652.429688 M 2269.265625 666.355469 C 2269.265625 698.035156 2269.34375 710.902344 2269.4375 694.949219 C 2269.53125 678.996094 2269.53125 653.074219 2269.4375 637.347656 C 2269.34375 621.621094 2269.265625 634.671875 2269.265625 666.355469 M 2107.203125 610.5 C 2107.03125 610.941406 2106.976562 618.988281 2107.074219 628.382812 L 2107.253906 645.464844 L 2107.402344 627.914062 L 2107.546875 610.363281 L 2118.46875 610.175781 L 2129.386719 609.984375 L 2118.449219 609.84375 C 2110.105469 609.734375 2107.4375 609.890625 2107.203125 610.5 M 1863.089844 639.925781 C 1862.980469 640.1875 1863.039062 659.199219 1863.21875 682.179688 L 1863.539062 723.957031 L 1863.691406 681.703125 C 1863.773438 658.464844 1863.71875 639.453125 1863.5625 639.453125 C 1863.410156 639.453125 1863.195312 639.664062 1863.089844 639.925781 M 1074.160156 680.121094 L 1074.175781 695.472656 L 1100.273438 695.636719 L 1126.375 695.800781 L 1126.75 723.324219 L 1126.734375 709.398438 L 1126.714844 695.472656 L 1100.613281 695.308594 L 1074.515625 695.140625 L 1074.328125 679.957031 L 1074.140625 664.769531 L 1074.160156 680.121094 M 2107.207031 696.738281 C 2107.207031 711.707031 2107.289062 717.742188 2107.390625 710.144531 C 2107.492188 702.550781 2107.492188 690.300781 2107.390625 682.925781 C 2107.289062 675.554688 2107.207031 681.769531 2107.207031 696.738281 " fill-opacity="1" fill-rule="evenodd"/><path fill="#010100" d="M 605.441406 581.652344 C 605.441406 581.890625 616.734375 613.9375 630.539062 652.863281 L 655.640625 723.640625 L 698.859375 723.640625 L 723.792969 653.21875 C 737.507812 614.488281 748.847656 582.441406 748.996094 582.007812 C 749.207031 581.386719 745.332031 581.214844 730.984375 581.214844 L 712.699219 581.214844 L 695.105469 634.46875 C 685.429688 663.757812 677.289062 687.472656 677.015625 687.167969 C 676.589844 686.6875 651.753906 611.5 644.578125 588.96875 L 642.109375 581.214844 L 623.773438 581.214844 C 613.691406 581.214844 605.441406 581.410156 605.441406 581.652344 M 784.261719 640.824219 C 772.425781 673.605469 760.851562 705.648438 758.546875 712.035156 L 754.351562 723.640625 L 790.769531 723.640625 L 791.152344 722.117188 C 791.363281 721.28125 793.277344 715.582031 795.40625 709.457031 L 799.28125 698.320312 L 852.167969 698.320312 L 856.039062 709.457031 C 858.167969 715.582031 860.082031 721.28125 860.292969 722.117188 L 860.675781 723.640625 L 897.339844 723.640625 L 896.894531 722.214844 C 896.652344 721.433594 885.121094 689.457031 871.269531 651.160156 L 846.085938 581.53125 L 825.933594 581.378906 L 805.785156 581.222656 L 784.261719 640.824219 M 913.078125 652.429688 L 913.078125 723.640625 L 947.890625 723.640625 L 947.890625 672.367188 L 961.34375 672.363281 C 976.699219 672.359375 984.238281 671.464844 991.992188 668.71875 C 999.132812 666.191406 1003.730469 663.320312 1009.027344 658.082031 C 1017.601562 649.605469 1021.847656 637.753906 1021.132812 624.289062 C 1020.460938 611.617188 1017.054688 603.484375 1009.0625 595.480469 C 1003.566406 589.976562 998.558594 586.917969 990.9375 584.410156 C 982.40625 581.605469 976.796875 581.222656 943.9375 581.21875 L 913.078125 581.214844 L 913.078125 652.429688 M 1039.675781 652.429688 L 1039.675781 723.640625 L 1126.398438 723.640625 L 1126.398438 695.789062 L 1073.859375 695.789062 L 1073.859375 664.773438 L 1120.703125 664.773438 L 1120.703125 637.550781 L 1073.859375 637.550781 L 1073.859375 609.066406 L 1126.398438 609.066406 L 1126.398438 581.214844 L 1039.675781 581.214844 L 1039.675781 652.429688 M 1737.242188 652.429688 L 1737.242188 723.640625 L 1772.050781 723.640625 L 1772.210938 681.503906 L 1772.375 639.371094 L 1788.121094 681.515625 L 1803.867188 723.664062 L 1817.832031 723.496094 L 1831.800781 723.324219 L 1847.472656 681.316406 C 1856.089844 658.210938 1863.300781 639.148438 1863.492188 638.957031 C 1863.6875 638.765625 1863.84375 657.738281 1863.84375 681.125 L 1863.84375 723.640625 L 1898.027344 723.640625 L 1898.027344 581.199219 L 1877.710938 581.363281 L 1857.394531 581.53125 L 1837.988281 629.824219 C 1827.316406 656.386719 1818.3125 678.128906 1817.976562 678.144531 C 1817.640625 678.160156 1808.53125 656.355469 1797.730469 629.695312 L 1778.089844 581.214844 L 1737.242188 581.214844 L 1737.242188 652.429688 M 1964.632812 582.957031 C 1963.917969 584.972656 1914.457031 721.65625 1914.007812 722.859375 C 1913.769531 723.496094 1917.441406 723.625 1931.929688 723.492188 L 1950.15625 723.324219 L 1954.304688 710.824219 L 1958.453125 698.320312 L 2011.648438 698.320312 L 2015.628906 710.1875 C 2017.816406 716.71875 2019.832031 722.417969 2020.101562 722.859375 C 2020.488281 723.480469 2024.632812 723.621094 2038.683594 723.492188 L 2056.765625 723.324219 L 2005.351562 581.214844 L 1965.246094 581.214844 L 1964.632812 582.957031 M 2072.101562 652.390625 L 2072.101562 723.640625 L 2106.914062 723.640625 L 2106.914062 669.835938 L 2115.460938 669.859375 L 2145.023438 723.640625 L 2184.285156 723.640625 L 2183.367188 722.214844 C 2180.90625 718.402344 2151.558594 667.695312 2151.667969 667.449219 C 2151.738281 667.289062 2153.945312 666.222656 2156.574219 665.082031 C 2172.636719 658.101562 2181.347656 645.992188 2182.65625 628.835938 C 2184.121094 609.65625 2173.363281 592.511719 2155.558594 585.648438 C 2145.246094 581.671875 2145.3125 581.675781 2107.074219 581.394531 L 2072.101562 581.136719 L 2072.101562 652.390625 M 2196.800781 595.140625 L 2196.800781 609.066406 L 2234.148438 609.066406 L 2234.148438 723.640625 L 2268.964844 723.640625 L 2268.964844 609.066406 L 2306.945312 609.066406 L 2306.945312 581.214844 L 2196.800781 581.214844 L 2196.800781 595.140625 M 947.890625 627.042969 L 947.890625 645.148438 L 956.914062 645.128906 C 972.417969 645.09375 976.878906 644.09375 981.585938 639.582031 C 984.925781 636.386719 986.085938 632.476562 985.757812 625.570312 C 985.363281 617.3125 982.574219 613.171875 975.628906 610.535156 C 973.550781 609.746094 969.90625 609.429688 960.394531 609.21875 L 947.890625 608.933594 L 947.890625 627.042969 M 2106.914062 627.476562 L 2106.914062 645.253906 L 2121.316406 645.03125 C 2134.890625 644.820312 2135.890625 644.722656 2138.714844 643.328125 C 2144.953125 640.253906 2147.792969 634.59375 2147.292969 626.238281 C 2146.972656 620.90625 2145.5625 617.445312 2142.578125 614.679688 C 2138.285156 610.695312 2133.429688 609.730469 2117.519531 609.714844 L 2106.914062 609.699219 L 2106.914062 627.476562 M 817.015625 645.632812 C 812.402344 659.476562 808.632812 671.011719 808.632812 671.269531 C 808.632812 671.523438 816.457031 671.734375 826.019531 671.734375 L 843.40625 671.734375 L 834.722656 646.097656 C 829.949219 632 825.894531 620.464844 825.71875 620.460938 C 825.539062 620.460938 821.625 631.789062 817.015625 645.632812 M 1976.511719 645.277344 C 1971.875 658.957031 1967.957031 670.507812 1967.800781 670.941406 C 1967.582031 671.5625 1971.285156 671.734375 1984.996094 671.734375 C 1994.605469 671.734375 2002.472656 671.519531 2002.472656 671.261719 C 2002.472656 670.445312 1985.832031 621.4375 1985.375 620.90625 C 1985.132812 620.625 1981.144531 631.59375 1976.511719 645.277344 " fill-opacity="1" fill-rule="evenodd"/><path fill="#fbf9f6" d="M 2072.734375 111.925781 C 2052 114.5625 2034.011719 122.996094 2020.671875 136.335938 C 2008.320312 148.6875 2001.617188 163.265625 2000.761719 179.632812 L 2000.394531 186.648438 L 1995.089844 183.597656 C 1979.351562 174.542969 1961.394531 169.816406 1942.652344 169.796875 C 1914.957031 169.769531 1889.003906 180.027344 1869.507812 198.710938 C 1853.046875 214.484375 1843.902344 230.617188 1839.027344 252.472656 C 1837.824219 257.882812 1837.636719 260.617188 1837.628906 273.261719 C 1837.617188 286.007812 1837.789062 288.628906 1839.03125 294.308594 C 1841.886719 307.394531 1847.890625 322.574219 1853.976562 332.085938 C 1855.265625 334.101562 1856.234375 335.828125 1856.125 335.921875 C 1856.019531 336.015625 1854.222656 336.945312 1852.132812 337.988281 C 1842.074219 343.011719 1828.992188 346.644531 1813.835938 348.628906 C 1807.6875 349.4375 1802.683594 349.597656 1791.363281 349.351562 C 1775.738281 349.007812 1768.394531 348.066406 1754.175781 344.578125 C 1750.085938 343.570312 1746.738281 342.875 1746.738281 343.023438 C 1746.738281 343.171875 1747.652344 344.621094 1748.765625 346.242188 C 1749.882812 347.863281 1751.261719 350.90625 1751.832031 353.003906 L 1752.871094 356.816406 L 1756.925781 358.292969 C 1763.074219 360.53125 1776.53125 363.796875 1785.035156 365.113281 C 1794.4375 366.570312 1818.011719 366.769531 1826.8125 365.46875 C 1840.578125 363.429688 1855.742188 358.683594 1867.640625 352.683594 C 1875.746094 348.597656 1888.234375 340.785156 1904.011719 329.941406 C 1923.390625 316.617188 1933.15625 310.515625 1941.945312 306.234375 C 1973.65625 290.792969 2003.363281 290.6875 2047.628906 305.855469 C 2053.84375 307.984375 2059.222656 309.625 2059.589844 309.503906 C 2060.605469 309.164062 2048.027344 301.359375 2038.488281 296.40625 C 2016.375 284.929688 1996.816406 280.078125 1975.25 280.714844 C 1947.960938 281.527344 1928.769531 289.324219 1889.480469 315.574219 C 1882.167969 320.457031 1872.785156 326.535156 1868.628906 329.082031 L 1861.070312 333.707031 L 1859.910156 330.070312 C 1854.171875 312.074219 1851.613281 292.429688 1853.046875 277.363281 C 1855.53125 251.273438 1865.316406 230.683594 1883.59375 213.082031 C 1897.691406 199.503906 1915.824219 190.160156 1936.601562 185.765625 C 1943.816406 184.242188 1945.867188 184.082031 1958.792969 184.054688 C 1974.316406 184.019531 1978.21875 184.492188 1993.058594 188.207031 L 2001.050781 190.207031 L 2001.449219 193.570312 C 2002.402344 201.6875 2008.394531 215.769531 2013.652344 222.253906 C 2014.324219 223.082031 2014.273438 221.445312 2013.492188 217.242188 C 2013.007812 214.628906 2012.425781 208.363281 2012.199219 203.316406 C 2011.722656 192.730469 2012.714844 185.132812 2015.652344 176.832031 C 2025.875 147.941406 2059.683594 127.96875 2095.839844 129.457031 C 2112.1875 130.132812 2126.070312 134.621094 2139.425781 143.546875 L 2142.507812 145.605469 L 2140.378906 146.703125 C 2136.457031 148.722656 2125.75 155.894531 2126.113281 156.257812 C 2126.308594 156.453125 2130.117188 155.308594 2134.574219 153.707031 C 2150.210938 148.089844 2164.921875 144.269531 2180.34375 141.820312 C 2188.164062 140.574219 2191.816406 140.363281 2205.03125 140.386719 C 2218.167969 140.414062 2221.621094 140.625 2227.628906 141.773438 C 2255.203125 147.046875 2275.28125 157.460938 2292.75 175.558594 C 2301.953125 185.09375 2307.386719 193.023438 2313.550781 205.9375 C 2330.621094 241.691406 2328.511719 283.484375 2307.691406 322.109375 C 2303.375 330.113281 2298.785156 337.527344 2298.183594 337.46875 C 2297.953125 337.449219 2296.566406 334.9375 2295.097656 331.886719 C 2289.648438 320.558594 2278.59375 307.855469 2267.671875 300.375 C 2262.34375 296.726562 2252.710938 291.722656 2247.808594 290.058594 L 2244.59375 288.96875 L 2244.160156 281.691406 C 2243.089844 263.617188 2235.785156 249.023438 2222.472656 238.371094 C 2218.371094 235.09375 2208.265625 229.269531 2206.675781 229.269531 C 2205.835938 229.269531 2206.480469 230.707031 2210.664062 238.210938 C 2216.035156 247.84375 2219.652344 256.226562 2221.832031 264.101562 C 2224.28125 272.929688 2224.6875 286.46875 2222.777344 295.707031 C 2221.28125 302.960938 2218.128906 311.957031 2214.675781 318.835938 C 2212.839844 322.492188 2204.601562 336.058594 2201.714844 340.171875 C 2200.386719 342.066406 2201.613281 342.0625 2206.511719 340.160156 C 2222.730469 333.863281 2237.226562 317.476562 2241.84375 300.222656 C 2243.441406 294.246094 2242.71875 294.164062 2251.699219 301.328125 C 2272.96875 318.292969 2284.785156 341.613281 2284.785156 366.628906 C 2284.785156 380.117188 2282.183594 391.207031 2276.199219 403.226562 C 2266.542969 422.628906 2251.75 436.101562 2231.976562 443.503906 C 2219.960938 448.003906 2206.441406 449.964844 2192.421875 449.238281 L 2183.734375 448.789062 L 2186.117188 443.949219 C 2189.691406 436.699219 2191.265625 427.195312 2189.863281 421.382812 C 2189.453125 419.6875 2189.351562 419.621094 2188.910156 420.75 C 2187.027344 425.585938 2183.113281 432.707031 2180.667969 435.746094 C 2165.113281 455.078125 2126.8125 460.179688 2093.304688 447.386719 C 2076.007812 440.78125 2063.558594 428.445312 2059.207031 413.601562 C 2058.242188 410.304688 2058.25 410.246094 2059.625 409.738281 C 2060.394531 409.453125 2062.65625 408.613281 2064.65625 407.875 C 2073.097656 404.75 2082.96875 398.964844 2090.773438 392.570312 C 2095.828125 388.429688 2102.484375 381.621094 2102.484375 380.589844 C 2102.484375 379.761719 2104.355469 379.359375 2079.378906 385.542969 C 2068.238281 388.300781 2056.285156 391.035156 2052.820312 391.621094 C 2039.984375 393.789062 2028.140625 393.988281 2019.246094 392.1875 C 2010.554688 390.429688 1999.71875 385.527344 1989.65625 378.808594 C 1986.25 376.53125 1983.28125 374.847656 1983.0625 375.0625 C 1982.84375 375.28125 1983.3125 377.230469 1984.101562 379.398438 C 1988.527344 391.53125 1999.257812 402.847656 2011.589844 408.378906 C 2019.367188 411.871094 2025.835938 413.121094 2036.183594 413.140625 C 2043.519531 413.152344 2045.460938 413.328125 2045.21875 413.964844 C 2045.046875 414.410156 2044.46875 416.464844 2043.933594 418.527344 C 2042.730469 423.167969 2039.222656 432.429688 2036.949219 436.96875 C 2024.101562 462.613281 2000.859375 480.789062 1970.757812 488.734375 C 1957.160156 492.328125 1952.847656 492.84375 1936.320312 492.867188 C 1920.050781 492.890625 1914.648438 492.300781 1901.242188 489.027344 C 1881.757812 484.265625 1860.578125 473.796875 1845.902344 461.675781 C 1843.523438 459.707031 1840.957031 457.597656 1840.207031 456.988281 C 1838.894531 455.925781 1838.957031 455.917969 1841.6875 456.867188 C 1847.824219 458.992188 1862.054688 462.285156 1870.414062 463.507812 C 1882.203125 465.238281 1907.398438 465.210938 1908.476562 463.46875 C 1908.632812 463.214844 1904.421875 461.929688 1899.121094 460.617188 C 1856.25 449.992188 1811.679688 426.234375 1754.96875 383.78125 C 1748.179688 378.699219 1742.441406 374.457031 1742.21875 374.351562 C 1741.996094 374.25 1738.789062 376.234375 1735.089844 378.761719 L 1728.367188 383.355469 L 1732.648438 387.703125 C 1755.863281 411.265625 1792.390625 436.652344 1820.355469 448.664062 L 1825.925781 451.058594 L 1830.085938 457.425781 C 1841.480469 474.878906 1856.917969 488.605469 1876.1875 498.417969 C 1898.023438 509.539062 1920.824219 514.230469 1946.152344 512.804688 C 1996.429688 509.980469 2036.363281 480.457031 2046.6875 438.472656 C 2048.332031 431.796875 2049.3125 423.976562 2049.3125 417.558594 C 2049.3125 412.84375 2049.433594 412.320312 2050.609375 412.011719 C 2051.808594 411.699219 2051.875 411.878906 2051.507812 414.324219 C 2050.929688 418.1875 2052.292969 426.855469 2054.378906 432.570312 C 2056.90625 439.5 2060.171875 444.585938 2065.945312 450.605469 C 2080.285156 465.546875 2101.5 473.757812 2125.90625 473.804688 C 2147.621094 473.847656 2164.761719 467.792969 2177.820312 455.472656 L 2181.308594 452.179688 L 2187.457031 454.320312 C 2209.84375 462.121094 2234.003906 461.09375 2254.171875 451.492188 C 2279.816406 439.273438 2297.265625 416.035156 2302.921875 386.566406 C 2303.695312 382.53125 2304.011719 377.738281 2304 370.109375 C 2303.984375 359.105469 2303.324219 354.285156 2300.632812 345.644531 L 2299.46875 341.90625 L 2304.835938 336.386719 C 2335.003906 305.347656 2347.679688 262.957031 2339.132812 221.671875 C 2336.046875 206.746094 2327.765625 187.617188 2319.140625 175.460938 C 2313.667969 167.757812 2298.882812 152.945312 2291.445312 147.714844 C 2269.554688 132.328125 2245.460938 124.808594 2218.097656 124.828125 C 2196.253906 124.84375 2171.023438 131.007812 2150.4375 141.359375 L 2145.257812 143.964844 L 2144.285156 142.480469 C 2134.773438 127.960938 2119.230469 117.75 2099.953125 113.351562 C 2094.664062 112.144531 2077.90625 111.265625 2072.734375 111.925781 M 1467.585938 286.902344 C 1445.621094 289.636719 1430.117188 297.4375 1424.570312 308.535156 C 1423.507812 310.65625 1422.640625 312.757812 1422.640625 313.203125 C 1422.640625 314.566406 1421.820312 314.65625 1417.78125 313.722656 C 1412.367188 312.472656 1398.582031 310.925781 1392.894531 310.929688 C 1390.28125 310.929688 1385.296875 311.355469 1381.8125 311.875 C 1369.101562 313.765625 1362.25 319.070312 1355.992188 331.863281 L 1352.695312 338.597656 L 1345.886719 339.015625 C 1332.140625 339.859375 1316.875 343.445312 1310.046875 347.433594 C 1303.589844 351.207031 1298.90625 357.117188 1294.335938 367.261719 C 1292.84375 370.570312 1291.410156 373.265625 1291.144531 373.253906 C 1290.878906 373.242188 1288.558594 372.855469 1285.988281 372.390625 C 1283.347656 371.917969 1278.785156 371.660156 1275.507812 371.800781 C 1267.835938 372.136719 1263.972656 373.964844 1258.804688 379.691406 C 1246.6875 393.113281 1239.085938 415.617188 1239.90625 435.625 C 1240.65625 453.808594 1246.136719 467.261719 1260.9375 487.214844 C 1277.078125 508.980469 1300.316406 527.851562 1319.441406 534.730469 C 1323.625 536.234375 1325.007812 536.421875 1331.449219 536.339844 C 1335.453125 536.289062 1339.738281 535.980469 1340.964844 535.652344 C 1342.195312 535.328125 1344.097656 534.910156 1345.195312 534.71875 C 1350.445312 533.820312 1360.914062 529.867188 1368.945312 525.753906 L 1373.167969 523.59375 L 1376.226562 524.78125 C 1389.214844 529.832031 1410.472656 527.128906 1432.136719 517.671875 C 1438.0625 515.082031 1438.195312 515.058594 1441.316406 515.878906 C 1445.675781 517.023438 1457.386719 516.945312 1463.066406 515.734375 C 1468.855469 514.496094 1475.914062 512.105469 1482.261719 509.222656 L 1487.128906 507.015625 L 1489.761719 509.140625 C 1491.210938 510.3125 1493.292969 512.003906 1494.390625 512.902344 C 1498.886719 516.582031 1510.394531 522.175781 1519.503906 525.109375 L 1528.691406 528.066406 L 1529.507812 531.378906 C 1529.957031 533.199219 1530.75 536.683594 1531.265625 539.121094 C 1532.414062 544.546875 1536.429688 555.484375 1540.144531 563.3125 C 1541.667969 566.519531 1542.914062 569.296875 1542.914062 569.484375 C 1542.914062 569.667969 1541.679688 569.820312 1540.175781 569.820312 C 1535.84375 569.820312 1526.011719 571.699219 1519.882812 573.703125 C 1492.796875 582.539062 1470.8125 603.410156 1459.074219 631.421875 C 1456.011719 638.730469 1452.285156 651.269531 1451.152344 658.050781 C 1450.433594 662.375 1450.140625 669.691406 1450.664062 670.214844 C 1450.816406 670.367188 1452.152344 667.707031 1453.636719 664.308594 C 1471.636719 623.09375 1492.542969 597.980469 1522.996094 580.996094 C 1529.171875 577.550781 1542.285156 571.703125 1543.761719 571.738281 C 1544.164062 571.746094 1545.492188 573.234375 1546.710938 575.046875 C 1551.753906 582.550781 1560.316406 589.738281 1567.644531 592.625 C 1572.164062 594.40625 1573.089844 593.816406 1569.023438 591.75 C 1564.789062 589.59375 1557.585938 582.808594 1554.292969 577.878906 C 1547.5625 567.804688 1543.273438 554.507812 1540.804688 536.082031 C 1540.347656 532.667969 1540.167969 529.757812 1540.40625 529.613281 C 1540.640625 529.464844 1543.167969 529.609375 1546.015625 529.9375 C 1554.472656 530.898438 1569.976562 529.4375 1580.527344 526.683594 C 1583.554688 525.894531 1582.703125 525.152344 1578.074219 524.542969 C 1564.96875 522.824219 1544.464844 518.195312 1533.734375 514.53125 C 1522.046875 510.546875 1508.050781 503.539062 1503.632812 499.464844 C 1502.742188 498.644531 1501.199219 497.546875 1500.203125 497.027344 C 1497.265625 495.488281 1485.816406 483.851562 1481.550781 478.0625 C 1473.679688 467.394531 1467.097656 454.660156 1462.242188 440.710938 C 1460.601562 435.996094 1460.148438 433.949219 1460.640625 433.457031 C 1461.039062 433.0625 1463.644531 432.808594 1466.832031 432.851562 C 1472.402344 432.929688 1473.457031 433.140625 1500.703125 439.675781 C 1516.488281 443.460938 1526.046875 445.023438 1537.875 445.742188 C 1555.0625 446.789062 1570.304688 451.796875 1588.269531 462.296875 C 1606.71875 473.082031 1619.617188 485.664062 1624.613281 497.753906 C 1636.785156 527.207031 1644.855469 560.796875 1645.875 586.28125 C 1646.929688 612.59375 1638.953125 625.304688 1608.066406 646.542969 C 1603.738281 649.519531 1590.15625 658.253906 1577.882812 665.949219 C 1533.234375 693.953125 1518.617188 704.660156 1503.496094 720.441406 C 1492.726562 731.679688 1485.746094 743.675781 1484.921875 752.367188 L 1484.617188 755.605469 L 1486.191406 751.949219 C 1493.375 735.28125 1512.152344 719.632812 1551.960938 697.140625 L 1558.789062 693.28125 L 1558.429688 695.324219 C 1556.222656 707.789062 1554.859375 754.066406 1556.152344 772.699219 C 1558.902344 812.40625 1565.765625 841.382812 1578.640625 867.648438 C 1582.78125 876.097656 1590.347656 888.800781 1590.375 887.355469 C 1590.382812 887.054688 1588.265625 882.496094 1585.671875 877.226562 C 1580.285156 866.289062 1577.296875 858.484375 1574.273438 847.449219 C 1570.179688 832.511719 1567.695312 817.75 1566.285156 800.015625 C 1565.300781 787.625 1565.875 750.734375 1567.25 737.882812 C 1569.601562 715.902344 1575 684.566406 1576.605469 683.585938 C 1577.046875 683.3125 1583.910156 679.398438 1591.855469 674.890625 C 1616.546875 660.867188 1633.386719 649.148438 1643.117188 639.203125 C 1660.164062 621.78125 1664.472656 600.238281 1656.890625 570.351562 C 1654.6875 561.675781 1649.832031 546.589844 1647.65625 541.675781 C 1646.523438 539.109375 1645.972656 536.296875 1645.523438 530.75 C 1644.878906 522.773438 1642.382812 509.273438 1640.402344 503.039062 C 1639.738281 500.953125 1638.449219 496.847656 1637.539062 493.921875 C 1633.589844 481.242188 1625.410156 469.925781 1612.859375 459.78125 C 1610.421875 457.8125 1608.285156 456.023438 1608.113281 455.808594 C 1607.9375 455.589844 1605.089844 453.644531 1601.78125 451.476562 C 1592.050781 445.101562 1577.375 438.554688 1565.699219 435.378906 C 1558.910156 433.53125 1548.539062 431.835938 1543.980469 431.832031 L 1540.933594 431.828125 L 1539.144531 427.871094 C 1536.851562 422.804688 1533.371094 411.761719 1531.515625 403.660156 C 1528.125 388.875 1524.292969 375.695312 1522.09375 371.277344 L 1520.785156 368.644531 L 1522.960938 363.933594 C 1525.503906 358.433594 1528.699219 347.6875 1530.066406 340.054688 C 1531.644531 331.230469 1531.273438 331.640625 1537.378906 332.0625 C 1551.675781 333.050781 1557.472656 333.183594 1557.472656 332.527344 C 1557.472656 331.261719 1553.59375 322.027344 1551.328125 317.886719 C 1548.167969 312.121094 1542.863281 305.152344 1539.632812 302.53125 C 1533.308594 297.394531 1521.894531 293.34375 1502.632812 289.398438 C 1488.851562 286.578125 1476.980469 285.730469 1467.585938 286.902344 M 1472.753906 301.5 C 1465.445312 302.484375 1453.839844 305.632812 1448.917969 307.972656 C 1444 310.308594 1440.152344 313.339844 1438.804688 315.949219 C 1435.117188 323.078125 1433.777344 352.179688 1435.945312 378.023438 C 1436.859375 388.917969 1442.878906 405.878906 1453.21875 426.707031 C 1458.054688 436.445312 1458.402344 436.96875 1458.792969 435.058594 C 1459.3125 432.535156 1460.605469 431.511719 1465.054688 430.101562 C 1469.921875 428.558594 1487.554688 428.714844 1506.957031 430.46875 C 1515.207031 431.214844 1524.566406 431.828125 1527.753906 431.828125 C 1533.019531 431.828125 1533.511719 431.726562 1533.117188 430.71875 C 1531.230469 425.917969 1528.023438 412.480469 1525.601562 399.226562 C 1524.011719 390.523438 1521.96875 380.851562 1521.0625 377.730469 C 1517.332031 364.859375 1511.335938 357.550781 1501.503906 353.886719 L 1498.285156 352.6875 L 1500.933594 352.945312 C 1506.777344 353.515625 1515.34375 359.363281 1518.996094 365.269531 L 1520.375 367.503906 L 1521.496094 362.476562 C 1526.410156 340.421875 1527.65625 322.617188 1524.910156 313.675781 C 1523.320312 308.496094 1521.457031 307.007812 1514.109375 305.054688 C 1510.628906 304.132812 1505.21875 302.914062 1502.085938 302.351562 C 1495.15625 301.113281 1479.101562 300.644531 1472.753906 301.5 M 1396.078125 316.679688 C 1383.539062 318.300781 1374.570312 321.824219 1371 326.53125 C 1363.921875 335.863281 1359.578125 358.660156 1361.15625 378.207031 C 1362.523438 395.101562 1366.125 407.996094 1373.578125 422.648438 C 1388.117188 451.234375 1411.664062 482.238281 1429.6875 496.523438 C 1436.035156 501.554688 1444.492188 506.160156 1449.070312 507.078125 C 1456.109375 508.492188 1465.355469 507.871094 1477.207031 505.191406 L 1483.347656 503.804688 L 1479.839844 499.941406 C 1473.425781 492.871094 1466.996094 482.09375 1463.757812 472.972656 C 1462.953125 470.710938 1461.527344 467.859375 1460.589844 466.644531 C 1457.070312 462.0625 1447.921875 447.675781 1443.484375 439.738281 C 1434.507812 423.691406 1425.484375 403.019531 1422.347656 391.316406 C 1418.648438 377.515625 1417.828125 335.046875 1420.972656 319.945312 L 1421.796875 315.988281 L 1410.984375 316.070312 C 1405.035156 316.113281 1398.328125 316.386719 1396.078125 316.679688 M 1699.074219 323.125 C 1700.457031 325.332031 1712.695312 335.613281 1713.941406 335.613281 C 1714.804688 335.613281 1718.253906 333.117188 1718.253906 332.488281 C 1718.253906 332.210938 1717.042969 331.523438 1715.5625 330.957031 C 1714.082031 330.394531 1709.792969 328.21875 1706.027344 326.125 C 1698.722656 322.0625 1698.289062 321.875 1699.074219 323.125 M 1687.238281 331.753906 C 1687.238281 332.300781 1695.660156 345.445312 1696.773438 346.632812 C 1697.390625 347.292969 1702.621094 344.074219 1702.3125 343.226562 C 1702.113281 342.691406 1687.9375 331.179688 1687.472656 331.179688 C 1687.34375 331.179688 1687.238281 331.4375 1687.238281 331.753906 M 1724.722656 340.789062 C 1723.929688 341.191406 1723.375 341.796875 1723.488281 342.140625 C 1723.726562 342.855469 1739.265625 351.523438 1739.640625 351.148438 C 1740.015625 350.773438 1735.074219 343.730469 1733.238281 342.027344 C 1731.375 340.296875 1726.960938 339.65625 1724.722656 340.789062 M 1340.035156 345.09375 C 1321.191406 350.011719 1312.796875 354.5625 1308.890625 361.984375 C 1304.050781 371.175781 1301.191406 383.605469 1300.675781 397.644531 C 1299.753906 422.839844 1306.941406 441.878906 1326.722656 466.644531 C 1344.058594 488.34375 1369.796875 509.996094 1385.132812 515.777344 C 1394.507812 519.3125 1410.253906 518.839844 1432.011719 514.375 L 1434.105469 513.945312 L 1429.328125 511.339844 C 1420.921875 506.753906 1413.097656 500.734375 1403.820312 491.710938 C 1389.585938 477.871094 1378.613281 463.839844 1367.632812 445.4375 C 1356.742188 427.1875 1351.289062 413.820312 1348.453125 398.425781 C 1347.324219 392.292969 1347.082031 388.574219 1347.066406 377.074219 C 1347.046875 362.6875 1347.746094 356.390625 1350.449219 346.636719 C 1351.476562 342.941406 1351.484375 342.578125 1350.554688 342.597656 C 1349.992188 342.609375 1345.257812 343.734375 1340.035156 345.09375 M 1707.484375 352.480469 C 1705.574219 353.75 1703.917969 354.863281 1703.800781 354.957031 C 1703.375 355.300781 1705.03125 357.765625 1705.6875 357.765625 C 1706.269531 357.765625 1711.585938 354.234375 1713.472656 352.59375 C 1713.992188 352.140625 1712.273438 350.253906 1711.28125 350.191406 C 1711.101562 350.179688 1709.394531 351.210938 1707.484375 352.480469 M 1725.507812 368.9375 C 1722.734375 370.847656 1720.042969 372.664062 1719.519531 372.96875 C 1718.703125 373.445312 1718.753906 373.707031 1719.859375 374.828125 L 1721.148438 376.136719 L 1727.296875 371.957031 C 1730.679688 369.65625 1733.289062 367.519531 1733.09375 367.207031 C 1731.851562 365.195312 1730.46875 365.511719 1725.507812 368.9375 M 1278.953125 378.460938 C 1274.496094 379.207031 1271.324219 380.761719 1268.902344 383.390625 C 1263.863281 388.859375 1257.867188 403.496094 1255.808594 415.371094 C 1254.375 423.632812 1254.824219 438.292969 1256.730469 445.4375 C 1264.382812 474.136719 1308.816406 522.734375 1331.175781 526.859375 C 1333.4375 527.277344 1338.042969 527.414062 1342.566406 527.195312 C 1350.335938 526.824219 1352.917969 526.460938 1364.246094 524.144531 L 1370.730469 522.816406 L 1363.929688 519.035156 C 1339.050781 505.207031 1314.667969 481.480469 1300 456.832031 C 1293.261719 445.511719 1289.53125 435.832031 1287.367188 424.058594 C 1285.21875 412.382812 1286.09375 393.496094 1289.34375 381.347656 L 1290.230469 378.023438 L 1285.382812 378.109375 C 1282.714844 378.15625 1279.820312 378.316406 1278.953125 378.460938 M 426.300781 523.933594 C 426.300781 524.113281 451.09375 553.175781 481.398438 588.523438 L 536.492188 652.792969 L 426.117188 781.558594 L 869.730469 781.71875 C 1113.71875 781.804688 1313.425781 781.796875 1313.523438 781.699219 C 1313.621094 781.597656 1312.734375 775.832031 1311.550781 768.878906 C 1309.117188 754.617188 1305.601562 738.503906 1301.496094 722.824219 L 1298.710938 712.195312 L 1290.566406 703.832031 C 1260.019531 672.472656 1250.464844 648.230469 1250.464844 602.070312 C 1250.464844 593.433594 1250.878906 582.808594 1251.449219 576.839844 L 1252.433594 566.53125 L 1249.957031 562.636719 C 1245.773438 556.058594 1244.941406 554.492188 1242.863281 549.25 C 1240.535156 543.386719 1238.726562 535.515625 1238.097656 528.519531 L 1237.65625 523.613281 L 831.980469 523.613281 C 608.855469 523.613281 426.300781 523.757812 426.300781 523.933594 M 1692.667969 526.9375 C 1692.066406 531.628906 1689.460938 541.738281 1687.949219 545.261719 L 1686.675781 548.238281 L 1688.542969 554.757812 C 1693.769531 572.992188 1696.046875 590.84375 1694.851562 604.230469 C 1693.644531 617.753906 1690.527344 629.113281 1684.980469 640.175781 C 1673.875 662.332031 1654.894531 679.652344 1617.605469 701.667969 C 1612.558594 704.648438 1607.914062 707.464844 1607.289062 707.925781 C 1604.574219 709.921875 1599.882812 752.609375 1599.882812 775.300781 L 1599.882812 781.875 L 2018.015625 781.875 C 2352.359375 781.875 2436.050781 781.71875 2435.664062 781.085938 C 2435.15625 780.261719 2330.078125 657.480469 2327.394531 654.574219 L 2325.867188 652.921875 L 2380.972656 588.636719 C 2411.277344 553.28125 2436.074219 524.1875 2436.074219 523.984375 C 2436.074219 523.777344 2268.90625 523.613281 2064.585938 523.613281 L 1693.097656 523.613281 L 1692.667969 526.9375 M 1290.332031 557.816406 C 1290.328125 557.980469 1289.765625 562.382812 1289.082031 567.605469 C 1285.109375 598.023438 1286.261719 626.566406 1292.128906 643.132812 C 1296.140625 654.449219 1304.015625 665.292969 1319.457031 680.742188 L 1330.675781 691.96875 L 1333.597656 702.265625 C 1340.699219 727.292969 1346.074219 752.167969 1349.324219 775.078125 L 1351.371094 789.480469 L 1349.574219 796.914062 C 1337.144531 848.285156 1319.554688 891.289062 1296.960938 925.566406 C 1272.328125 962.929688 1241.175781 990.601562 1201.09375 1010.722656 C 1197.089844 1012.734375 1194.167969 1014.503906 1194.605469 1014.652344 C 1195.835938 1015.078125 1208.792969 1011.898438 1217.550781 1009.019531 C 1231.308594 1004.496094 1251.34375 994.71875 1260.207031 988.203125 C 1261.589844 987.183594 1262.835938 986.46875 1262.980469 986.609375 C 1263.375 987.007812 1261.976562 993.511719 1259.855469 1001.148438 C 1256.253906 1014.085938 1250.359375 1027.089844 1243.3125 1037.609375 C 1225.535156 1064.160156 1197.152344 1082.488281 1167.75 1086.398438 C 1160.667969 1087.34375 1144.765625 1086.828125 1138.425781 1085.453125 C 1110.628906 1079.425781 1088.222656 1060.933594 1070.183594 1029.132812 L 1066.992188 1023.503906 L 1071.371094 1021.40625 C 1084.882812 1014.925781 1094.207031 1004.585938 1098.421875 991.398438 C 1100.507812 984.863281 1101.847656 973.390625 1100.664062 972.207031 C 1100.433594 971.976562 1098.867188 974.667969 1097.183594 978.183594 C 1088.125 997.089844 1077.011719 1006.976562 1057.496094 1013.496094 C 1048.039062 1016.65625 1037.972656 1018.457031 1009.078125 1022.160156 C 1007.253906 1022.390625 1006.242188 1022.78125 1006.582031 1023.121094 C 1007.523438 1024.0625 1018.664062 1026.664062 1025.34375 1027.503906 C 1034.164062 1028.609375 1050.390625 1027.972656 1057.335938 1026.246094 C 1060.257812 1025.519531 1062.761719 1025.035156 1062.898438 1025.171875 C 1063.035156 1025.308594 1064.019531 1028.476562 1065.082031 1032.214844 C 1069.507812 1047.773438 1076.734375 1061.46875 1087.558594 1074.816406 C 1089.175781 1076.8125 1089.214844 1077.027344 1088.496094 1080.242188 C 1088.082031 1082.085938 1086.292969 1086.5625 1084.515625 1090.191406 C 1081.730469 1095.878906 1080.53125 1097.542969 1075.832031 1102.207031 C 1069.824219 1108.167969 1064.859375 1111.152344 1056.769531 1113.65625 C 1052.898438 1114.855469 1050.675781 1115.121094 1044.742188 1115.078125 C 1036.292969 1115.019531 1030.238281 1113.394531 1023.234375 1109.3125 C 1015.507812 1104.804688 1006.324219 1094.25 1001.050781 1083.816406 C 999.792969 1081.328125 999.546875 1081.128906 999.117188 1082.234375 C 998.339844 1084.222656 998.496094 1091.269531 999.429688 1096.515625 C 1001.054688 1105.628906 1005.101562 1113.480469 1011.851562 1120.632812 L 1015.996094 1125.019531 L 1008.371094 1128.714844 C 995.492188 1134.957031 986.378906 1137.464844 974.441406 1138.046875 C 965.4375 1138.488281 958.839844 1137.734375 950.503906 1135.320312 C 922.121094 1127.09375 900.40625 1099.902344 898.71875 1070.46875 C 897.644531 1051.65625 903.574219 1033.890625 918.402344 1011.496094 C 919.035156 1010.539062 919.261719 1009.757812 918.910156 1009.757812 C 917.621094 1009.757812 906.859375 1018.605469 903.011719 1022.828125 C 895.386719 1031.207031 888.050781 1043.75 885.179688 1053.335938 L 884.355469 1056.085938 L 880.203125 1055.667969 C 874.46875 1055.085938 862.445312 1052.371094 857.082031 1050.441406 C 850.515625 1048.082031 841.992188 1043.660156 835.542969 1039.269531 C 828.492188 1034.46875 818.449219 1024.496094 813.253906 1017.140625 C 805.195312 1005.726562 798.492188 990.027344 795.242188 974.941406 C 793.300781 965.925781 793.117188 944.234375 794.914062 935.402344 C 803.019531 895.472656 831.085938 868.800781 877.28125 857.128906 C 883.03125 855.679688 897.023438 852.773438 898.269531 852.773438 C 898.34375 852.773438 896.902344 855.691406 895.058594 859.261719 C 893.21875 862.828125 890.910156 867.886719 889.929688 870.496094 C 888.949219 873.109375 888.101562 875.320312 888.046875 875.410156 C 887.992188 875.503906 886.269531 876.011719 884.214844 876.539062 C 862.285156 882.171875 847.460938 898.289062 845.042969 919.136719 C 844.792969 921.28125 844.753906 923.035156 844.957031 923.035156 C 845.15625 923.035156 847.152344 920.21875 849.386719 916.773438 C 853.824219 909.9375 860.890625 902.078125 866.027344 898.273438 C 873.496094 892.742188 884.3125 888.574219 896.285156 886.609375 C 902.089844 885.660156 921.871094 884.507812 936.816406 884.246094 L 945.042969 884.105469 L 941.878906 882.628906 C 936.90625 880.308594 928.164062 877.59375 920.789062 876.082031 C 915.558594 875.011719 911.710938 874.6875 903.800781 874.652344 C 897.175781 874.625 893.707031 874.386719 893.945312 873.976562 C 896.476562 869.628906 906.203125 858.445312 911.9375 853.292969 C 934.597656 832.933594 961.546875 822.019531 994.617188 819.808594 C 1022.949219 817.910156 1052.003906 825.144531 1073.859375 839.539062 C 1081.757812 844.742188 1093.316406 856.21875 1098.183594 863.691406 C 1102.347656 870.085938 1107.671875 880.953125 1107.09375 881.886719 C 1106.878906 882.238281 1105.648438 882.523438 1104.363281 882.527344 C 1103.078125 882.527344 1099.464844 882.949219 1096.332031 883.460938 C 1080.644531 886.03125 1066.753906 891.816406 1053.445312 901.320312 C 1047.445312 905.601562 1034.4375 918.222656 1029.402344 924.648438 C 1023.15625 932.613281 1012.28125 949.621094 1013.429688 949.621094 C 1013.667969 949.621094 1016.894531 946.726562 1020.597656 943.191406 C 1042.738281 922.046875 1058.550781 911.417969 1076.957031 905.296875 C 1085.984375 902.292969 1093.289062 900.972656 1103.609375 900.472656 C 1113.757812 899.980469 1123.527344 900.875 1146.339844 904.378906 C 1172.1875 908.351562 1179.574219 909.109375 1192.460938 909.109375 C 1214.410156 909.109375 1232.351562 904.867188 1252.375 894.945312 C 1267.242188 887.582031 1280.484375 877.886719 1293.519531 864.824219 C 1311.949219 846.355469 1327.277344 823.40625 1338.089844 798.097656 C 1341.589844 789.902344 1345.53125 778.738281 1345.238281 777.855469 C 1345.121094 777.503906 1343.785156 779.476562 1342.273438 782.238281 C 1330.238281 804.1875 1313.105469 826.820312 1295.316406 844.253906 C 1270.945312 868.136719 1246.839844 881.8125 1218.816406 887.644531 C 1203.453125 890.84375 1189.890625 890.480469 1158.046875 886.011719 C 1136.148438 882.941406 1125.886719 881.90625 1117.195312 881.898438 L 1111.472656 881.890625 L 1110.429688 875.316406 C 1103.453125 831.328125 1058.320312 799.503906 1003.089844 799.621094 C 969.089844 799.691406 938.628906 811.027344 915.933594 832.054688 C 911.273438 836.371094 902.667969 846.347656 900.101562 850.414062 C 899.546875 851.289062 898.679688 851.335938 893.136719 850.769531 C 885.632812 850.007812 870.898438 850.5 862.324219 851.800781 C 844.960938 854.433594 829.976562 860.121094 816.195312 869.308594 C 808.164062 874.664062 796.214844 886.601562 790.960938 894.519531 C 766.804688 930.949219 767.464844 979.988281 792.621094 1017.964844 C 798.609375 1027.003906 810.675781 1039.339844 818.761719 1044.691406 C 834.367188 1055.023438 849.675781 1059.863281 867.183594 1060.003906 C 872.058594 1060.042969 877.8125 1059.851562 879.96875 1059.578125 L 883.886719 1059.078125 L 883.265625 1061.160156 C 882.046875 1065.242188 881.851562 1080.515625 882.933594 1087.082031 C 885.722656 1103.980469 893.308594 1118.605469 905.738281 1131.035156 C 922.058594 1147.355469 942.875 1155.636719 964.667969 1154.476562 C 984.320312 1153.433594 1001.3125 1145.871094 1015.328125 1131.933594 L 1019.78125 1127.503906 L 1024.652344 1129.949219 C 1036.664062 1135.984375 1051.929688 1136.71875 1065.164062 1131.898438 C 1083.808594 1125.109375 1095.707031 1109.410156 1097.09375 1089.777344 L 1097.464844 1084.484375 L 1099.730469 1086.472656 C 1105.648438 1091.667969 1118.382812 1098.6875 1127.664062 1101.875 C 1136.628906 1104.953125 1143.667969 1106.101562 1155.640625 1106.441406 C 1162.691406 1106.644531 1168.789062 1106.480469 1172.097656 1106.007812 C 1214.453125 1099.925781 1250.378906 1068.996094 1262.730469 1027.96875 C 1266.351562 1015.941406 1267.222656 1009.734375 1267.230469 995.820312 L 1267.242188 983.46875 L 1273.253906 978.742188 C 1281.472656 972.289062 1299.644531 953.980469 1306.25 945.507812 C 1325.128906 921.273438 1338.867188 895.28125 1349.242188 864.167969 C 1357.472656 839.488281 1362.183594 817.46875 1365.371094 788.839844 C 1367.40625 770.539062 1367.246094 731.492188 1365.089844 720.160156 C 1364.65625 717.886719 1364.566406 717.789062 1364.207031 719.210938 C 1363.988281 720.078125 1363.359375 724.066406 1362.808594 728.070312 C 1361.28125 739.21875 1357.996094 758.023438 1357.390625 759.089844 C 1357.023438 759.730469 1356.84375 759.167969 1356.828125 757.367188 C 1356.800781 753.429688 1353.917969 731.335938 1351.734375 718.320312 C 1350.6875 712.085938 1349.929688 706.890625 1350.050781 706.769531 C 1350.171875 706.644531 1351.917969 707.726562 1353.925781 709.164062 C 1361.730469 714.753906 1385.296875 728.265625 1385.296875 727.152344 C 1385.296875 726.988281 1373.523438 715.09375 1359.136719 700.71875 C 1319.929688 661.542969 1309.984375 648.621094 1305.558594 631.101562 C 1302.722656 619.867188 1300.496094 596.832031 1300.480469 578.542969 L 1300.472656 571.757812 L 1296.285156 565.566406 C 1292.324219 559.710938 1290.359375 557.15625 1290.332031 557.816406 M 608.019531 590.226562 C 609.765625 595.191406 621.101562 627.171875 633.210938 661.289062 L 655.226562 723.324219 L 699.269531 723.324219 L 724.421875 652.429688 L 749.574219 581.53125 L 731.195312 581.363281 C 721.085938 581.273438 712.628906 581.414062 712.402344 581.679688 C 712.175781 581.949219 704.183594 605.882812 694.640625 634.871094 C 685.097656 663.859375 677.164062 687.21875 677.011719 686.777344 C 676.855469 686.335938 669.007812 662.476562 659.570312 633.753906 L 642.414062 581.53125 L 623.628906 581.363281 L 604.851562 581.195312 L 608.019531 590.226562 M 804.964844 582.957031 C 804.621094 583.914062 793.054688 615.855469 779.265625 653.941406 C 765.476562 692.023438 754.195312 723.292969 754.195312 723.421875 C 754.195312 723.550781 762.503906 723.585938 772.664062 723.492188 L 791.132812 723.324219 L 795.28125 710.824219 L 799.429688 698.320312 L 852.015625 698.320312 L 856.167969 710.824219 L 860.316406 723.324219 L 897.886719 723.660156 L 896.75 720.644531 C 896.125 718.984375 884.519531 686.933594 870.957031 649.421875 L 846.296875 581.214844 L 805.589844 581.214844 L 804.964844 582.957031 M 912.445312 652.398438 L 912.445312 723.640625 L 947.890625 723.640625 L 947.890625 673 L 958.179688 672.996094 C 985.621094 672.980469 997.589844 669.535156 1008.699219 658.464844 C 1017.777344 649.410156 1021.550781 640.089844 1021.515625 626.792969 C 1021.492188 618.335938 1020.324219 612.804688 1017.171875 606.21875 C 1011.710938 594.820312 1001.648438 586.949219 987.453125 582.988281 C 982.542969 581.613281 981.347656 581.566406 947.417969 581.363281 L 912.445312 581.15625 L 912.445312 652.398438 M 1039.042969 652.429688 L 1039.042969 723.640625 L 1127.054688 723.640625 L 1126.886719 709.554688 L 1126.714844 695.472656 L 1100.605469 695.308594 L 1074.492188 695.140625 L 1074.492188 664.773438 L 1120.703125 664.773438 L 1120.703125 637.550781 L 1074.492188 637.550781 L 1074.492188 609.066406 L 1127.03125 609.066406 L 1127.03125 581.214844 L 1039.042969 581.214844 L 1039.042969 652.429688 M 1736.609375 652.417969 L 1736.609375 723.640625 L 1772.058594 723.640625 L 1772.09375 681.703125 L 1772.125 639.769531 L 1787.773438 681.546875 L 1803.417969 723.324219 L 1817.703125 723.492188 L 1831.984375 723.664062 L 1847.441406 682.226562 L 1862.894531 640.789062 L 1863.058594 682.214844 L 1863.21875 723.640625 L 1898.660156 723.640625 L 1898.660156 581.214844 L 1857.148438 581.214844 L 1837.585938 630.050781 C 1822.914062 666.675781 1817.890625 678.585938 1817.5 677.683594 C 1817.214844 677.023438 1808.324219 655.117188 1797.75 629.007812 L 1778.519531 581.53125 L 1757.566406 581.367188 L 1736.609375 581.199219 L 1736.609375 652.417969 M 1964.480469 582.632812 C 1964.136719 583.417969 1952.503906 615.46875 1938.628906 653.851562 L 1913.40625 723.640625 L 1950.246094 723.640625 L 1954.601562 710.980469 L 1958.953125 698.320312 L 2011.242188 698.320312 L 2012.46875 701.644531 C 2013.144531 703.472656 2015.082031 709.167969 2016.773438 714.304688 L 2019.84375 723.640625 L 2038.375 723.640625 C 2048.570312 723.640625 2056.902344 723.425781 2056.894531 723.164062 C 2056.886719 722.90625 2045.382812 690.929688 2031.328125 652.113281 L 2005.777344 581.53125 L 1985.441406 581.363281 L 1965.105469 581.199219 L 1964.480469 582.632812 M 2072.101562 652.394531 L 2072.101562 723.640625 L 2107.546875 723.640625 L 2107.546875 669.777344 L 2111.402344 669.964844 L 2115.253906 670.152344 L 2129.917969 696.875 L 2144.578125 723.597656 L 2164.359375 723.617188 C 2175.238281 723.632812 2184.140625 723.515625 2184.140625 723.363281 C 2184.140625 723.214844 2176.882812 710.648438 2168.007812 695.441406 C 2159.132812 680.234375 2152.027344 667.539062 2152.21875 667.230469 C 2152.410156 666.921875 2152.949219 666.671875 2153.414062 666.671875 C 2153.878906 666.671875 2156.921875 665.339844 2160.171875 663.710938 C 2164.820312 661.386719 2167.097656 659.730469 2170.851562 655.957031 C 2179.09375 647.671875 2182.875 638.199219 2182.875 625.84375 C 2182.875 604.65625 2170.53125 589.054688 2149.011719 583.035156 C 2144.089844 581.660156 2142.914062 581.609375 2108.023438 581.382812 L 2072.101562 581.148438 L 2072.101562 652.394531 M 2196.167969 595.140625 L 2196.167969 609.066406 L 2234.148438 609.066406 L 2234.148438 723.640625 L 2269.597656 723.640625 L 2269.597656 609.066406 L 2306.945312 609.066406 L 2306.945312 581.214844 L 2196.167969 581.214844 L 2196.167969 595.140625 M 947.890625 627.164062 L 947.890625 644.628906 L 960.710938 644.414062 C 973.046875 644.207031 973.664062 644.136719 977.125 642.511719 C 981.429688 640.496094 984.207031 637.023438 985.195312 632.425781 C 986.785156 625.007812 985.351562 618.507812 981.207031 614.363281 C 977.210938 610.367188 974.152344 609.699219 959.804688 609.699219 L 947.890625 609.699219 L 947.890625 627.164062 M 2107.546875 627.8125 L 2107.546875 645.289062 L 2121 644.976562 C 2136.070312 644.628906 2137.882812 644.25 2142.046875 640.585938 C 2145.652344 637.414062 2147.09375 633.636719 2147.078125 627.425781 C 2147.054688 618.417969 2142.765625 612.742188 2134.675781 611.003906 C 2132.949219 610.636719 2126.140625 610.332031 2119.542969 610.332031 L 2107.546875 610.332031 L 2107.546875 627.8125 M 1976.882812 645.023438 C 1972.402344 658.496094 1968.605469 669.875 1968.445312 670.308594 C 1968.214844 670.929688 1971.789062 671.101562 1984.996094 671.101562 C 1994.691406 671.101562 2001.835938 670.855469 2001.835938 670.527344 C 2001.835938 670.027344 1985.410156 620.984375 1985.132812 620.65625 C 1985.074219 620.585938 1981.363281 631.554688 1976.882812 645.023438 M 817.070312 646.097656 L 808.738281 671.101562 L 825.828125 671.101562 C 835.351562 671.101562 842.828125 670.855469 842.707031 670.546875 C 842.59375 670.242188 838.796875 658.992188 834.269531 645.546875 C 829.742188 632.105469 825.894531 621.101562 825.71875 621.101562 C 825.542969 621.097656 821.648438 632.347656 817.070312 646.097656 " fill-opacity="1" fill-rule="evenodd"/></svg>